<?xml version="1.0" encoding="UTF-8"?>
<svg width="55px" height="26px" viewBox="0 0 55 26" version="1.1" xmlns="http://www.w3.org/2000/svg" xmlns:xlink="http://www.w3.org/1999/xlink">
    <!-- Generator: Sketch 48.2 (47327) - http://www.bohemiancoding.com/sketch -->
    <title>Shape</title>
    <desc>Created with Sketch.</desc>
    <defs></defs>
    <g id="Page-1" stroke="none" stroke-width="1" fill="none" fill-rule="evenodd">
        <g id="icon01" transform="translate(0.000000, 1.000000)" stroke="#FFFFFF">
            <path d="M42.8180157,12.2138381 C42.8180157,12.2138381 54,11.4419843 54,15.4793734 C54,19.5167624 46.2418799,24.3655875 41.3138903,24.3655875 C36.3859008,24.3655875 32.9818277,19.8334204 29.8350392,18.2699217 C33.2848451,18.5359634 35.5952099,18.5359634 36.7661336,18.2699217 C39.0419906,17.7528318 40.0566062,16.0658504 41.3138903,15.4793734 C41.9714069,15.1726659 42.472782,14.0841542 42.8180157,12.2138381 Z M25.8768146,16.2908094 C25.8768146,16.2908094 17.386423,8.05770235 10.9543081,8.05770235 C5.68986945,8.05770235 0.94,6.61295039 0.94,4.99007833 C9.0537112,8.66700618 15.1389946,11.4247021 19.1958502,13.263166 C20.680509,13.9359756 22.9074971,14.9451901 25.8768146,16.2908094 Z M0.94,4.99007833 C0.94,9.40349869 4.68052219,12.4117493 14.3385901,12.4117493 C23.996658,12.4117493 26.7080418,18.9032376 33.3380679,18.9032376 C39.968094,18.9032376 42.8180157,13.5992167 42.8180157,12.2138381 C42.8180157,10.8284595 37.2369191,8.05770235 34.9015666,6.5337859 C32.5662141,5.00986945 27.7767624,0.26 21.9185901,0.26 L8.40125326,0.26 C8.40125326,0.26 0.94,0.26 0.94,4.99007833 Z" id="Shape"></path>
        </g>
    </g>
</svg>