<svg id="Layer_1" data-name="Layer 1" xmlns="http://www.w3.org/2000/svg" viewBox="0 0 56.69 56.69"><defs><style>.cls-1{fill:#283371;}</style></defs><title>ORx Icons</title><path class="cls-1" d="M5.94,30.61c-1.58,0-2.65-1.41-2.65-3.57s1.07-3.51,2.65-3.51S8.58,24.89,8.58,27s-1.07,3.57-2.64,3.57m0-7.58c-1.88,0-3.21,1.55-3.21,4s1.33,4.07,3.21,4.07,3.2-1.6,3.2-4.07-1.33-4-3.2-4"/><path class="cls-1" d="M16.2,30.65c-.78,0-1-.49-1-1.21v-3.7h1.65v-.45H15.24V23.65h-.45l-.07,1.64-.89.05v.4h.88v3.65c0,1,.32,1.72,1.42,1.72a3.11,3.11,0,0,0,.92-.22l-.14-.42a2,2,0,0,1-.71.18"/><path class="cls-1" d="M20.75,25.15a2.79,2.79,0,0,0-2,1V22.47h-.52V31h.52V26.69c.7-.71,1.18-1.07,1.85-1.07.93,0,1.31.57,1.31,1.78V31h.53V27.32c0-1.46-.55-2.17-1.72-2.17"/><path class="cls-1" d="M26.14,30.65c-1.14,0-2-1-2-2.51s.85-2.53,2-2.53,2,1,2,2.53-.86,2.51-2,2.51m0-5.5c-1.35,0-2.54,1.09-2.54,3a2.58,2.58,0,1,0,5.1,0c0-1.9-1.18-3-2.56-3"/><path class="cls-1" d="M34.46,31V25.29H30.92V23.65h-.45l-.07,1.64-.9.05v.4h.89v3.65c0,1,.32,1.72,1.42,1.72a3.23,3.23,0,0,0,.93-.22l-.15-.42a2,2,0,0,1-.71.18c-.78,0-.95-.49-.95-1.21v-3.7h3V31Z"/><path class="cls-1" d="M34.21,23.92a.46.46,0,0,0,.48-.46.45.45,0,0,0-.48-.47.45.45,0,0,0-.47.47.45.45,0,0,0,.47.46"/><path class="cls-1" d="M38.75,31.11a2.67,2.67,0,0,0,1.81-.76L40.29,30a2.3,2.3,0,0,1-1.51.65c-1.24,0-2.06-1-2.06-2.51a2.25,2.25,0,0,1,2.06-2.53,1.92,1.92,0,0,1,1.34.6l.31-.36a2.29,2.29,0,0,0-1.66-.7,2.69,2.69,0,0,0-2.59,3c0,1.88,1.11,3,2.57,3"/><path class="cls-1" d="M10.9,26.34h0l0-1.05h-.45V31h.52V27.1c.44-1.06,1-1.45,1.55-1.45a1.24,1.24,0,0,1,.52.09l.12-.47a1.13,1.13,0,0,0-.57-.12,2,2,0,0,0-1.61,1.19"/><path class="cls-1" d="M45.23,27.14l-.4,0c.06-.25.12-.47.2-.71l.77-2.53c.15-.49.16-.5,1-.5s1.43.12,1.43,1.14h0a2.37,2.37,0,0,1-1.16,2,3.67,3.67,0,0,1-1.82.59m8,1.07c-.91,0-1.77,1.35-2.42,2.16-.11-.36-.23-.7-.34-1.06-.18-.59-.44-1.1-1.14-1.1a1.68,1.68,0,0,0-1.46,1.13l-.54-1.48c-.09-.28-.27-.57-.45-.62v0a4.19,4.19,0,0,0,.93-.33,2.74,2.74,0,0,0,1.92-2.35h0c0-1.17-1-1.51-2-1.51-.75,0-1.35,0-2,0s-1.44,0-2,0c-.15,0-.39,0-.39.23s.28.22.46.22.57,0,.57.35a2.59,2.59,0,0,1-.15.61q-.77,2.58-1.56,5.17c-.23.78-.36,1-.94,1.05-.36,0-.53,0-.53.25s.33.15.42.15L42.91,31l1.66.05c.13,0,.38,0,.38-.21s-.25-.19-.42-.19-.6,0-.6-.39a2.53,2.53,0,0,1,.13-.58l.5-1.64c0-.14.09-.29.13-.43l1-.11c.09,0,.19.36.28.62.29.83.58,1.66.88,2.49.09.25.11.42.37.42s.5,0,.87,0,.62,0,.78,0,.33,0,.33-.21-.22-.2-.36-.21a.61.61,0,0,1-.63-.41,1,1,0,0,1-.06-.52c.06-.29.25-.63.62-.63s.6.58.71.92.31.95.44,1.39c-.28.49-1.58,2.21-2.17,2.21a.18.18,0,0,1-.18-.15c0-.1,0-.21,0-.36a.43.43,0,0,0-.46-.38.84.84,0,0,0-.72.85.68.68,0,0,0,.77.71,2.35,2.35,0,0,0,1.47-.72,12.6,12.6,0,0,0,1.42-1.71c.16.5.31,1,.49,1.44s.35,1,1,1c.88,0,1.56-1.24,1.56-1.89,0-.08,0-.26-.14-.26s-.15.14-.18.28c0,.32-.25,1-.65,1s-.5-.57-.58-.81c-.15-.53-.35-1.16-.53-1.7a11.91,11.91,0,0,1,1.1-1.41c.23-.24.44-.41.57-.41s.14.08.15.15,0,.2.06.33.12.24.37.24a.83.83,0,0,0,.74-.84v0a.69.69,0,0,0-.74-.66"/></svg>